<svg width="174" height="50" viewBox="0 0 174 50" fill="none" xmlns="http://www.w3.org/2000/svg">
<path d="M16.4968 43.5004C13.8278 43.5004 11.4507 43.0417 9.36549 42.1242C7.29221 41.1948 5.65385 39.9199 4.4504 38.2994C3.25886 36.667 2.64522 34.7843 2.60947 32.6515H10.4021C10.4498 33.5451 10.7417 34.3316 11.2779 35.0107C11.826 35.678 12.5529 36.1963 13.4584 36.5657C14.364 36.9351 15.3828 37.1198 16.5147 37.1198C17.6943 37.1198 18.7369 36.9112 19.6425 36.4942C20.5481 36.0772 21.257 35.4993 21.7694 34.7605C22.2818 34.0218 22.5379 33.1698 22.5379 32.2047C22.5379 31.2276 22.2639 30.3637 21.7158 29.6131C21.1796 28.8505 20.4051 28.2547 19.3923 27.8258C18.3914 27.3968 17.1999 27.1823 15.8177 27.1823H12.4039V21.4987H15.8177C16.9854 21.4987 18.0161 21.2961 18.9097 20.891C19.8153 20.4859 20.5183 19.9259 21.0187 19.2109C21.5192 18.4841 21.7694 17.6381 21.7694 16.673C21.7694 15.7555 21.549 14.9512 21.1081 14.2601C20.6791 13.5571 20.0715 13.009 19.285 12.6158C18.5105 12.2226 17.605 12.026 16.5683 12.026C15.5198 12.026 14.5606 12.2166 13.6908 12.5979C12.821 12.9673 12.1239 13.4975 11.5996 14.1886C11.0753 14.8797 10.7953 15.6899 10.7596 16.6193H3.34226C3.37801 14.5103 3.97974 12.6515 5.14745 11.0429C6.31515 9.43436 7.88798 8.17729 9.86594 7.27172C11.8558 6.35424 14.1019 5.8955 16.6041 5.8955C19.1301 5.8955 21.3405 6.35424 23.235 7.27172C25.1295 8.18921 26.6011 9.42841 27.6496 10.9893C28.7101 12.5383 29.2344 14.278 29.2225 16.2083C29.2344 18.2577 28.5969 19.9676 27.3101 21.3378C26.0351 22.7081 24.3729 23.5779 22.3235 23.9473V24.2333C25.0163 24.5788 27.0658 25.5142 28.4718 27.0393C29.8897 28.5526 30.5927 30.4471 30.5808 32.723C30.5927 34.8082 29.991 36.661 28.7757 38.2815C27.5722 39.902 25.91 41.1769 23.7891 42.1063C21.6681 43.0357 19.2374 43.5004 16.4968 43.5004ZM36.3583 43V6.39594H61.0231V12.7766H44.0973V21.4987H59.7542V27.8794H44.0973V36.6193H61.0946V43H36.3583ZM67.176 43V6.39594H81.6174C84.3937 6.39594 86.7589 6.92618 88.713 7.98665C90.6671 9.0352 92.1566 10.4948 93.1813 12.3655C94.2179 14.2243 94.7362 16.3691 94.7362 18.7999C94.7362 21.2306 94.212 23.3754 93.1634 25.2342C92.1149 27.093 90.5956 28.5407 88.6058 29.5773C86.6278 30.614 84.2328 31.1323 81.4208 31.1323H72.2162V24.9303H80.1697C81.6591 24.9303 82.8864 24.6741 83.8515 24.1618C84.8286 23.6375 85.5554 22.9166 86.032 21.9991C86.5206 21.0697 86.7648 20.0033 86.7648 18.7999C86.7648 17.5845 86.5206 16.524 86.032 15.6184C85.5554 14.701 84.8286 13.992 83.8515 13.4916C82.8745 12.9792 81.6353 12.723 80.1339 12.723H74.915V43H67.176ZM99.763 43V6.39594H107.502V21.4987H123.213V6.39594H130.934V43H123.213V27.8794H107.502V43H99.763ZM170.951 24.698C170.951 28.6896 170.195 32.0855 168.682 34.8856C167.18 37.6857 165.131 39.8246 162.533 41.3021C159.948 42.7677 157.04 43.5004 153.811 43.5004C150.558 43.5004 147.639 42.7617 145.053 41.2842C142.468 39.8067 140.424 37.6679 138.923 34.8678C137.422 32.0676 136.671 28.6777 136.671 24.698C136.671 20.7063 137.422 17.3104 138.923 14.5103C140.424 11.7102 142.468 9.57735 145.053 8.11176C147.639 6.63425 150.558 5.8955 153.811 5.8955C157.04 5.8955 159.948 6.63425 162.533 8.11176C165.131 9.57735 167.18 11.7102 168.682 14.5103C170.195 17.3104 170.951 20.7063 170.951 24.698ZM163.105 24.698C163.105 22.1123 162.718 19.9318 161.943 18.1564C161.181 16.381 160.103 15.0346 158.708 14.1171C157.314 13.1996 155.682 12.7409 153.811 12.7409C151.94 12.7409 150.308 13.1996 148.914 14.1171C147.52 15.0346 146.436 16.381 145.661 18.1564C144.898 19.9318 144.517 22.1123 144.517 24.698C144.517 27.2836 144.898 29.4641 145.661 31.2395C146.436 33.0149 147.52 34.3613 148.914 35.2788C150.308 36.1963 151.94 36.6551 153.811 36.6551C155.682 36.6551 157.314 36.1963 158.708 35.2788C160.103 34.3613 161.181 33.0149 161.943 31.2395C162.718 29.4641 163.105 27.2836 163.105 24.698Z" fill="black"/>
<circle cx="153.508" cy="24.8058" r="6.11157" fill="#FF0000"/>
</svg>
