<svg width="34" height="34" viewBox="0 0 34 34" fill="none" xmlns="http://www.w3.org/2000/svg">
<g clip-path="url(#clip0_306_233)">
<path d="M9.35842 15.2489C11.3925 19.2465 14.6627 22.5167 18.6674 24.5508L21.7751 21.436C22.1635 21.0476 22.7215 20.9346 23.2088 21.09C24.7909 21.6126 26.4931 21.8951 28.2518 21.8951C29.0358 21.8951 29.6644 22.5237 29.6644 23.3077V28.2518C29.6644 29.0358 29.0358 29.6644 28.2518 29.6644C14.9876 29.6644 4.23779 18.9146 4.23779 5.65038C4.23779 4.86639 4.87346 4.23779 5.65038 4.23779H10.5944C11.3784 4.23779 12.007 4.86639 12.007 5.65038C12.007 7.40905 12.2895 9.11122 12.8122 10.6933C12.9676 11.1807 12.8546 11.7386 12.4661 12.1271L9.35842 15.2489Z" fill="black"/>
</g>
<defs>
<clipPath id="clip0_306_233">
<rect width="33.9021" height="33.9021" fill="white"/>
</clipPath>
</defs>
</svg>
