<svg width="26" height="22" viewBox="0 0 26 22" fill="none" xmlns="http://www.w3.org/2000/svg">
<path d="M23.0803 19.2976C23.5222 17.9403 25.597 4.40623 25.8519 1.73857C25.9295 0.931382 25.6736 0.39435 25.1748 0.153725C24.57 -0.136118 23.6753 0.00825581 22.6352 0.383412C21.21 0.897475 2.99359 8.63138 1.94141 9.07982C0.943906 9.50419 0 9.96576 0 10.6362C0 11.1076 0.280001 11.3723 1.05 11.6469C1.85063 11.9323 3.86859 12.5437 5.06188 12.8729C6.21031 13.1901 7.51516 12.9145 8.24797 12.4595C9.02344 11.9772 17.9834 5.98341 18.6255 5.45732C19.2675 4.93232 19.7805 5.60497 19.2555 6.13107C18.7305 6.65607 12.5814 12.6247 11.7698 13.4515C10.7844 14.4545 11.4833 15.4947 12.145 15.9114C12.8986 16.3872 18.3236 20.025 19.1406 20.609C19.9577 21.1931 20.7856 21.4578 21.5447 21.4578C22.3038 21.4567 22.703 20.457 23.0803 19.2976Z" fill="#fff"/>
</svg>
