<svg width="55" height="57" viewBox="0 0 55 57" fill="none" xmlns="http://www.w3.org/2000/svg">
<g clip-path="url(#clip0_237_612)">
<path d="M20.6248 26.3574V17.5872C20.6248 14.3512 23.1915 11.7248 26.354 11.7248C29.5165 11.7248 32.0832 14.3512 32.0832 17.5872V26.3574C34.8561 24.458 36.6665 21.2454 36.6665 17.5872C36.6665 11.7483 32.0603 7.03491 26.354 7.03491C20.6478 7.03491 16.0415 11.7483 16.0415 17.5872C16.0415 21.2454 17.8519 24.458 20.6248 26.3574ZM43.1748 37.2146L32.7707 31.9149C32.3811 31.7508 31.9686 31.657 31.5332 31.657H29.7915V17.5872C29.7915 15.6409 28.2561 14.0698 26.354 14.0698C24.4519 14.0698 22.9165 15.6409 22.9165 17.5872V42.7721L15.0561 41.0837C14.8728 41.0603 14.7123 41.0134 14.5061 41.0134C13.7957 41.0134 13.154 41.3182 12.6957 41.7872L10.8853 43.6632L22.2061 55.2473C22.8248 55.8805 23.6957 56.2791 24.6353 56.2791H40.1957C41.9144 56.2791 43.2436 54.9894 43.4957 53.2775L45.2144 40.9196C45.2373 40.7555 45.2603 40.5913 45.2603 40.4506C45.2603 38.9967 44.3894 37.7305 43.1748 37.2146Z" fill="black" fill-opacity="0.87"/>
</g>
<defs>
<clipPath id="clip0_237_612">
<rect width="55" height="56.2791" fill="white"/>
</clipPath>
</defs>
</svg>
