<svg width="62" height="61" viewBox="0 0 62 61" fill="none" xmlns="http://www.w3.org/2000/svg">
<path d="M30.7627 0C47.7222 0.000159831 61.5244 13.665 61.5244 30.4551C61.5244 47.2452 47.7222 60.91 30.7627 60.9102C13.8031 60.9102 4.64035e-05 47.2453 0 30.4551C0 13.6649 13.7949 0 30.7627 0ZM30.7627 3.72266C15.8506 3.72266 3.76074 15.692 3.76074 30.4551C3.76089 45.2181 15.8507 57.1865 30.7627 57.1865C45.6745 57.1864 57.7635 45.218 57.7637 30.4551C57.7637 22.0155 53.8071 14.4881 47.6318 9.58594C43.8712 19.2611 33.8867 18.0097 26.8467 18.252L25.1338 24.8496C33.8216 17.8399 45.2988 24.7937 44.0752 35.3652C43.2512 42.4882 38.1201 47.1477 32.6953 48.4883C26.7811 49.9499 20.2306 47.7618 17.2939 41.8018C16.984 41.1718 16.4373 39.9118 16.2334 39.2334L22.4658 37.6504C22.5718 38.0057 22.7593 38.3533 22.9551 38.6602C27.1318 45.3229 35.5833 41.9874 36.5459 35.0742C37.5166 28.04 27.5486 24.2932 23.0049 32.5146L17.4736 30.1807L17.376 30.1396L19.4316 21.959C19.7579 20.5055 20.7361 16.7025 20.8506 16.3379C21.0301 15.7726 21.0627 15.5784 21.2666 15.0615C24.8233 5.84677 31.8314 4.91797 38.0557 4.91797C38.3084 4.91797 38.5532 4.91771 38.7979 4.92578C36.2609 4.14243 33.5606 3.72269 30.7627 3.72266ZM45.1768 7.78516C44.4263 7.84976 43.5857 7.88255 42.5742 7.89062C41.8647 7.89062 41.1471 7.87455 40.3887 7.8584C39.63 7.84225 38.8466 7.82617 38.0635 7.82617C32.4429 7.82617 27.1809 8.51214 24.2441 15.5303C25.8757 15.3364 27.6547 15.3208 29.5146 15.3047C32.9732 15.2805 36.5459 15.2477 39.4824 14.1172C42.305 13.0269 44.1326 11.0075 45.1768 7.78516Z" fill="white"/>
</svg>
