<svg width="64" height="61" viewBox="0 0 64 61" fill="none" xmlns="http://www.w3.org/2000/svg">
<path fill-rule="evenodd" clip-rule="evenodd" d="M45.8502 53.1446C35.103 59.1133 23.4509 60.1751 16.01 56.6062C25.9049 62.2714 38.0858 62.344 48.0583 56.8217C57.9206 51.4534 63.9917 41.1467 63.8847 30.0106C63.3875 37.9965 56.5836 47.1612 45.8502 53.1446ZM49.7052 6.16421C49.0639 5.1206 48.1824 4.22859 47.1238 3.58231C51.0522 5.58158 54.505 8.38134 57.2521 11.7971C57.7334 12.3831 58.1821 12.9814 58.6036 13.6122C59.7376 15.5333 60.2653 17.7347 60.1548 19.9639C59.8775 28.0715 52.4039 37.9006 40.6287 44.4387C28.8549 50.9757 16.2726 52.2984 8.83392 48.4684C6.78469 47.4538 5.07463 45.8999 3.87863 43.962L3.8302 43.8849C3.5191 43.2844 3.2418 42.6849 2.97919 42.07C1.23763 38.0546 0.429299 33.7189 0.600629 29.3641C0.664956 30.5966 1.01781 31.7945 1.64337 32.856C5.44886 39.1932 19.288 38.3615 32.5532 30.9951C45.8355 23.6108 53.5107 12.5048 49.7052 6.16421ZM36.2528 2.24275C36.1289 2.07308 36.0003 1.90336 35.8629 1.76726C34.0604 0.321736 31.7145 -0.27664 29.4308 0.119569C28.9979 0.152013 28.5279 0.197773 28.0646 0.27355C23.9637 0.782664 20.0196 2.08877 16.4124 4.09024C12.8255 6.05932 9.67262 8.72056 7.13874 11.891C6.86143 12.2414 6.59866 12.5964 6.33035 12.9503C4.82445 14.6426 4.18762 16.9199 4.59335 19.1323C4.65306 19.3175 4.73317 19.5197 4.82445 19.6881C6.99886 23.3183 15.8083 22.3673 24.4755 17.5348C33.1575 12.7214 38.4273 5.87408 36.2528 2.24275Z" fill="white"/>
</svg>
