<svg width="146" height="30" viewBox="0 0 146 30" fill="none" xmlns="http://www.w3.org/2000/svg">
<path d="M31.0895 1.23328H20.0509V29.2361H31.0895V1.23328Z" fill="white"/>
<path d="M17.1638 1.23328H8.98279V29.2361H17.1493V1.23328H17.1638Z" fill="white"/>
<path d="M6.34343 1.23328H0.816895V29.2361H6.34343V1.23328Z" fill="white"/>
<path d="M42.2878 1.23362H56.0099C58.3888 1.1331 60.7532 1.8224 62.7114 3.201C64.452 4.5078 65.3223 6.5039 65.3223 9.18931C65.3514 10.6972 64.9452 12.1763 64.1619 13.4544C63.3931 14.6463 62.2617 15.5653 60.9417 16.0392C63.3206 16.5275 64.6696 18.7103 65.0177 22.5589C65.0177 22.6881 65.0467 23.0902 65.0903 23.7795C65.1483 24.4688 65.1918 25.0145 65.2498 25.4166C65.3078 25.8187 65.3659 26.2782 65.4384 26.8957C65.4964 27.3984 65.6124 27.8866 65.7865 28.3605C65.9026 28.6908 66.0911 28.978 66.3377 29.2221H60.1004C59.8683 28.7195 59.7088 28.1738 59.6362 27.6281C59.5347 26.9963 59.4477 26.1634 59.3606 25.1438C59.2881 24.1385 59.2446 23.5785 59.2446 23.478C59.0415 21.5106 58.5483 20.1463 57.7941 19.3852C57.0398 18.6241 55.6763 18.2507 53.7471 18.2507H48.3511V29.2078H42.3023V1.23362H42.2878ZM48.2931 6.07309V13.8421H54.0372C55.4007 13.9139 56.7497 13.641 57.9681 13.0379C58.911 12.4922 59.3752 11.4439 59.3752 9.86425C59.3752 8.29896 58.911 7.40861 57.9971 6.87728C56.8512 6.30286 55.5747 6.03001 54.2983 6.08745L48.2931 6.07309Z" fill="white"/>
<path d="M90.0825 9.5768H84.3384C84.1063 6.79087 82.3657 5.41227 79.102 5.41227C77.956 5.35483 76.8101 5.6564 75.8383 6.2739C75.4611 6.53239 75.1565 6.87704 74.9534 7.29349C74.7504 7.69558 74.6488 8.15512 74.6633 8.61465C74.6633 8.91622 74.7213 9.20343 74.8229 9.47628C74.9534 9.76349 75.142 10.022 75.4031 10.1943C75.6642 10.4097 75.9543 10.582 76.2589 10.74C76.6651 10.9267 77.0857 11.0846 77.5209 11.2139L79.0294 11.6591C79.4791 11.7883 80.1173 11.9606 80.9441 12.1617C81.7709 12.3627 82.4962 12.5638 83.1199 12.7505C85.3248 13.2818 87.399 14.287 89.1832 15.6944C89.8649 16.3406 90.4016 17.1304 90.7353 18.0064C91.0834 18.8824 91.2284 19.8302 91.1704 20.7636C91.1994 22.214 90.8658 23.6644 90.2131 24.9568C89.6038 26.12 88.69 27.0965 87.5876 27.7858C86.4707 28.4895 85.2667 29.0065 83.9903 29.3224C82.6268 29.6527 81.2197 29.825 79.8127 29.8107C76.0703 29.8107 73.1403 28.949 71.037 27.2258C69.9781 26.3354 69.1513 25.201 68.5856 23.9229C68.0344 22.6448 67.7733 21.2518 67.8313 19.8589H73.8365C73.9381 23.3772 76.0123 25.1292 80.0738 25.1292C81.3938 25.201 82.6993 24.8563 83.8162 24.1239C84.2514 23.8224 84.614 23.4203 84.8461 22.932C85.0927 22.4581 85.2087 21.9268 85.1942 21.3811C85.2087 20.9359 85.1072 20.4907 84.8751 20.1174C84.643 19.744 84.3094 19.4281 83.9177 19.2557C82.2061 18.4946 80.4365 17.8771 78.6378 17.4032C78.5217 17.3889 78.4057 17.3602 78.2897 17.3314L77.9705 17.274L77.6224 17.1735C76.6941 16.915 76.0413 16.7283 75.6932 16.5991L73.9961 15.9959C73.4014 15.7949 72.8356 15.522 72.2989 15.2061C71.9363 14.962 71.5012 14.6317 70.9645 14.2152C70.5003 13.8562 70.1086 13.411 69.8185 12.8941C69.5574 12.334 69.3399 11.7596 69.1803 11.1708C68.9772 10.4671 68.8757 9.7204 68.8902 8.98802C68.8612 7.81047 69.1078 6.64727 69.601 5.5846C70.1086 4.52192 70.8629 3.60285 71.7913 2.89919C74.0396 1.29082 76.7521 0.486638 79.5081 0.615882C82.2061 0.500998 84.8751 1.27646 87.1089 2.82739C89.0236 4.3496 90.039 6.58983 90.0825 9.5768Z" fill="white"/>
<path d="M117.803 1.23328V29.2361H111.754V17.1447H100.469V29.2361H94.4199V1.23328H100.469V11.7738H111.754V1.23328H117.803Z" fill="white"/>
<path d="M122.719 1.23346H135.788C138.022 1.13294 140.242 1.73607 142.127 2.95671C143.389 3.99066 144.231 5.44107 144.492 7.0638C144.753 8.68653 144.434 10.338 143.578 11.7309C142.896 12.7505 141.939 13.5404 140.822 14.0286C144.173 15.0051 145.855 17.2884 145.855 20.8785C145.913 22.0417 145.71 23.2049 145.26 24.2676C144.796 25.3303 144.115 26.2781 143.23 27.0248C141.315 28.5327 138.936 29.3081 136.514 29.2076H122.719V1.23346ZM128.608 6.00113V12.5639H134.149C137.195 12.5639 138.719 11.4725 138.719 9.30403C138.777 8.80141 138.69 8.28444 138.472 7.8249C138.254 7.36537 137.906 6.97764 137.486 6.70479C136.441 6.20217 135.295 5.97241 134.149 6.02985L128.608 6.00113ZM128.608 16.7284V24.3538H134.701C135.992 24.4112 137.282 24.1527 138.443 23.564C139.357 23.0326 139.806 22.0274 139.806 20.5339C139.806 19.0404 139.328 17.9921 138.356 17.4895C137.108 16.9151 135.759 16.6566 134.396 16.7284H128.608Z" fill="white"/>
</svg>
