<svg width="69" height="61" viewBox="0 0 69 61" fill="none" xmlns="http://www.w3.org/2000/svg">
<path d="M68.8168 33.0693C68.4072 14.7179 53.2623 0 34.6329 0C15.7413 0 0.410645 15.164 0.410645 33.8479H14.0919C14.0919 48.7875 26.3504 60.91 41.4544 60.91C56.2989 60.91 68.4072 49.1957 68.8168 34.5886L68.8168 33.0693ZM41.4544 47.3789C33.9135 47.3939 27.7882 41.354 27.7731 33.8885C27.7731 33.8749 27.7731 33.8614 27.7731 33.8479C27.7656 26.3824 33.8725 20.3243 41.4134 20.3168C41.427 20.3168 41.4407 20.3168 41.4544 20.3168C48.9952 20.3019 55.1205 26.3418 55.1356 33.8073C55.1356 33.8208 55.1356 33.8344 55.1356 33.8479C55.1431 41.3134 49.0362 47.3715 41.4953 47.379C41.4817 47.379 41.468 47.379 41.4544 47.3789Z" fill="white"/>
</svg>
