<svg width="78" height="44" viewBox="0 0 78 44" fill="none" xmlns="http://www.w3.org/2000/svg">
<path d="M62.589 13.0665C59.3843 13.0665 56.4839 14.0236 54.0132 15.672V0.667969H47.174V28.3187C47.174 36.7291 54.0848 43.5 62.5443 43.5C71.0037 43.5 77.9951 36.7734 77.9951 28.2389C78.0041 19.7133 71.1649 13.0665 62.589 13.0665ZM31.553 30.2773L25.2957 14.1388H20.5065L14.2133 30.2773L7.91122 14.1388H0.454346L11.4651 42.5163H16.2543L22.8608 25.6156L29.503 42.5163H34.2923L45.2672 14.1388H37.8462L31.553 30.2773ZM62.5532 36.738C57.9162 36.738 54.0132 33.0689 54.0132 28.2832C54.0132 23.4975 57.6834 19.8728 62.589 19.8728C67.4946 19.8728 71.1649 23.657 71.1649 28.2832C71.1649 32.9183 67.2619 36.738 62.5532 36.738Z" fill="white"/>
</svg>
