<svg width="94" height="94" viewBox="0 0 94 94" fill="none" xmlns="http://www.w3.org/2000/svg">
<path d="M69.1454 45.838C80.3112 45.838 89.3628 36.4723 89.3628 24.919C89.3628 13.3658 80.3112 4 69.1454 4C57.9796 4 48.928 13.3658 48.928 24.919C48.928 36.4723 57.9796 45.838 69.1454 45.838Z" stroke="#0088FF" stroke-width="8" stroke-linecap="round" stroke-linejoin="round"/>
<path d="M19.7247 66.7575C28.4091 66.7575 35.4493 59.473 35.4493 50.4871C35.4493 41.5013 28.4091 34.2168 19.7247 34.2168C11.0402 34.2168 4 41.5013 4 50.4871C4 59.473 11.0402 66.7575 19.7247 66.7575Z" stroke="#0088FF" stroke-width="8" stroke-linecap="round" stroke-linejoin="round"/>
<path d="M57.9129 90.0002C64.1161 90.0002 69.1448 84.797 69.1448 78.3785C69.1448 71.96 64.1161 66.7568 57.9129 66.7568C51.7097 66.7568 46.681 71.96 46.681 78.3785C46.681 84.797 51.7097 90.0002 57.9129 90.0002Z" stroke="#0088FF" stroke-width="8" stroke-linecap="round" stroke-linejoin="round"/>
</svg>
