<svg width="91" height="90" viewBox="0 0 91 90" fill="none" xmlns="http://www.w3.org/2000/svg">
<g opacity="0.8">
<path d="M25.2134 39.6996L45.0279 45.0046L64.8426 50.3097L84.6574 55.6146C89.4534 37.7292 81.6396 19.4358 66.6612 10.1594C63.325 8.09328 59.6334 6.47443 55.6466 5.40702C51.0552 4.17774 46.4368 3.77747 41.9508 4.11444C25.053 5.38369 10.0329 17.1131 5.39868 34.3945L25.2134 39.6996Z" stroke="#0088FF" stroke-width="8" stroke-linecap="round" stroke-linejoin="round"/>
<path d="M55.6457 5.40918C55.6457 5.40918 44.0743 12.9213 37.4569 21.7596C30.8392 30.598 29.1753 40.7627 29.1753 40.7627" stroke="#0088FF" stroke-width="8" stroke-linecap="round" stroke-linejoin="round"/>
<path d="M55.6475 5.40918C55.6475 5.40918 61.9095 17.6958 63.2176 28.6563C64.526 39.6165 60.8805 49.2508 60.8805 49.2508" stroke="#0088FF" stroke-width="8" stroke-linecap="round" stroke-linejoin="round"/>
<path d="M5.39868 34.3975L25.2134 39.7025L45.0279 45.0076L64.8426 50.3127L84.6573 55.6178" stroke="#0088FF" stroke-width="8" stroke-linecap="round" stroke-linejoin="round"/>
<path d="M4 85.9995H86.0545" stroke="#0088FF" stroke-width="8" stroke-linecap="round" stroke-linejoin="round"/>
<path d="M45.0281 45.0059L33.7456 86" stroke="#0088FF" stroke-width="8" stroke-linecap="round" stroke-linejoin="round"/>
<path d="M41.9507 4.11444C46.4366 3.77747 51.055 4.17774 55.6464 5.40702C59.6332 6.47443 63.3249 8.09328 66.661 10.1594" stroke="#0088FF" stroke-width="8" stroke-linecap="round" stroke-linejoin="round"/>
</g>
</svg>
